<svg version="1.1" xmlns="http://www.w3.org/2000/svg" xmlns:xlink="http://www.w3.org/1999/xlink" width="325.18994140625" height="236"><defs/><g><text fill="#eeeeee" stroke="none" font-family="Arial" font-size="24px" font-style="normal" font-weight="normal" text-decoration="none" x="0" y="0">UNREGISTERED</text><text fill="#eeeeee" stroke="none" font-family="Arial" font-size="24px" font-style="normal" font-weight="normal" text-decoration="none" x="0" y="30">UNREGISTERED</text><text fill="#eeeeee" stroke="none" font-family="Arial" font-size="24px" font-style="normal" font-weight="normal" text-decoration="none" x="0" y="60">UNREGISTERED</text><text fill="#eeeeee" stroke="none" font-family="Arial" font-size="24px" font-style="normal" font-weight="normal" text-decoration="none" x="0" y="90">UNREGISTERED</text><text fill="#eeeeee" stroke="none" font-family="Arial" font-size="24px" font-style="normal" font-weight="normal" text-decoration="none" x="0" y="120">UNREGISTERED</text><text fill="#eeeeee" stroke="none" font-family="Arial" font-size="24px" font-style="normal" font-weight="normal" text-decoration="none" x="0" y="150">UNREGISTERED</text><text fill="#eeeeee" stroke="none" font-family="Arial" font-size="24px" font-style="normal" font-weight="normal" text-decoration="none" x="0" y="180">UNREGISTERED</text><text fill="#eeeeee" stroke="none" font-family="Arial" font-size="24px" font-style="normal" font-weight="normal" text-decoration="none" x="0" y="210">UNREGISTERED</text><text fill="#eeeeee" stroke="none" font-family="Arial" font-size="24px" font-style="normal" font-weight="normal" text-decoration="none" x="200" y="0">UNREGISTERED</text><text fill="#eeeeee" stroke="none" font-family="Arial" font-size="24px" font-style="normal" font-weight="normal" text-decoration="none" x="200" y="30">UNREGISTERED</text><text fill="#eeeeee" stroke="none" font-family="Arial" font-size="24px" font-style="normal" font-weight="normal" text-decoration="none" x="200" y="60">UNREGISTERED</text><text fill="#eeeeee" stroke="none" font-family="Arial" font-size="24px" font-style="normal" font-weight="normal" text-decoration="none" x="200" y="90">UNREGISTERED</text><text fill="#eeeeee" stroke="none" font-family="Arial" font-size="24px" font-style="normal" font-weight="normal" text-decoration="none" x="200" y="120">UNREGISTERED</text><text fill="#eeeeee" stroke="none" font-family="Arial" font-size="24px" font-style="normal" font-weight="normal" text-decoration="none" x="200" y="150">UNREGISTERED</text><text fill="#eeeeee" stroke="none" font-family="Arial" font-size="24px" font-style="normal" font-weight="normal" text-decoration="none" x="200" y="180">UNREGISTERED</text><text fill="#eeeeee" stroke="none" font-family="Arial" font-size="24px" font-style="normal" font-weight="normal" text-decoration="none" x="200" y="210">UNREGISTERED</text><g transform="translate(-102,-214) scale(1,1)"><rect fill="#ffffff" stroke="none" x="112" y="408" width="115.12255859375" height="32"/></g><g transform="translate(-102,-214) scale(1,1)"><path fill="none" stroke="#000000" d="M 112 408 L 227.12255859375 408 L 227.12255859375 440 L 112 440 L 112 408 Z Z" stroke-miterlimit="10"/></g><g transform="translate(-102,-214) scale(1,1)"><path fill="none" stroke="#000000" d="M 122 408 L 122 440" stroke-miterlimit="10"/></g><g transform="translate(-102,-214) scale(1,1)"><path fill="none" stroke="#000000" d="M 112 418 L 227.12255859375 418" stroke-miterlimit="10"/></g><g transform="translate(-102,-214) scale(1,1)"><g><path fill="none" stroke="none"/><text fill="#000000" stroke="none" font-family="Arial" font-size="13px" font-style="normal" font-weight="normal" text-decoration="none" x="126.5" y="435.5">InternalStorage1</text></g></g><g transform="translate(-102,-214) scale(1,1)"><rect fill="#ffffff" stroke="none" x="344" y="224" width="73.18994140625" height="32"/></g><g transform="translate(-102,-214) scale(1,1)"><path fill="none" stroke="#000000" d="M 344 224 L 417.18994140625 224 L 417.18994140625 256 L 344 256 L 344 224 Z Z" stroke-miterlimit="10"/></g><g transform="translate(-102,-214) scale(1,1)"><g><path fill="none" stroke="none"/><text fill="#000000" stroke="none" font-family="Arial" font-size="13px" font-style="normal" font-weight="normal" text-decoration="none" x="353.5" y="246.5">Process1</text></g></g><g transform="translate(-102,-214) scale(1,1)"><path fill="none" stroke="#000000" d="M 362 256 L 362 400 M 362 400 A 8 8 0 0 1 354 408 L 227 408" stroke-miterlimit="10"/></g><g transform="translate(-102,-214) scale(1,1)"><path fill="#000000" stroke="none" d="M 237.16267485762415 403.790482243984 L 227 408 L 237.16267485762415 412.209517756016"/></g><g transform="translate(-102,-214) scale(1,1)"><path fill="none" stroke="#000000" d="M 237.16267485762415 403.790482243984 L 227 408 L 237.16267485762415 412.209517756016 L 237.16267485762415 403.790482243984" stroke-miterlimit="10"/></g></g></svg>