<svg version="1.1" xmlns="http://www.w3.org/2000/svg" xmlns:xlink="http://www.w3.org/1999/xlink" width="109.57080078125" height="234"><defs/><g><text fill="#eeeeee" stroke="none" font-family="Arial" font-size="24px" font-style="normal" font-weight="normal" text-decoration="none" x="0" y="0">UNREGISTERED</text><text fill="#eeeeee" stroke="none" font-family="Arial" font-size="24px" font-style="normal" font-weight="normal" text-decoration="none" x="0" y="30">UNREGISTERED</text><text fill="#eeeeee" stroke="none" font-family="Arial" font-size="24px" font-style="normal" font-weight="normal" text-decoration="none" x="0" y="60">UNREGISTERED</text><text fill="#eeeeee" stroke="none" font-family="Arial" font-size="24px" font-style="normal" font-weight="normal" text-decoration="none" x="0" y="90">UNREGISTERED</text><text fill="#eeeeee" stroke="none" font-family="Arial" font-size="24px" font-style="normal" font-weight="normal" text-decoration="none" x="0" y="120">UNREGISTERED</text><text fill="#eeeeee" stroke="none" font-family="Arial" font-size="24px" font-style="normal" font-weight="normal" text-decoration="none" x="0" y="150">UNREGISTERED</text><text fill="#eeeeee" stroke="none" font-family="Arial" font-size="24px" font-style="normal" font-weight="normal" text-decoration="none" x="0" y="180">UNREGISTERED</text><text fill="#eeeeee" stroke="none" font-family="Arial" font-size="24px" font-style="normal" font-weight="normal" text-decoration="none" x="0" y="210">UNREGISTERED</text><g transform="translate(-150,-190) scale(1,1)"><path fill="#C0C0C0" stroke="none" d="M 200.285400390625 338.5 C 200.285400390625 332.1487248 205.434125190625 327 211.785400390625 327 C 218.136675590625 327 223.285400390625 332.1487248 223.285400390625 338.5 C 223.285400390625 344.8512752 218.136675590625 350 211.785400390625 350 C 205.434125190625 350 200.285400390625 344.8512752 200.285400390625 338.5 Z" opacity="0.2"/></g><g transform="translate(-150,-190) scale(1,1)"><path fill="#ffffff" stroke="none" d="M 193.285400390625 331.5 C 193.285400390625 325.1487248 198.434125190625 320 204.785400390625 320 C 211.136675590625 320 216.285400390625 325.1487248 216.285400390625 331.5 C 216.285400390625 337.8512752 211.136675590625 343 204.785400390625 343 C 198.434125190625 343 193.285400390625 337.8512752 193.285400390625 331.5 Z"/></g><g transform="translate(-150,-190) scale(1,1)"><path fill="none" stroke="#000000" d="M 193.285400390625 331.5 C 193.285400390625 325.1487248 198.434125190625 320 204.785400390625 320 C 211.136675590625 320 216.285400390625 325.1487248 216.285400390625 331.5 C 216.285400390625 337.8512752 211.136675590625 343 204.785400390625 343 C 198.434125190625 343 193.285400390625 337.8512752 193.285400390625 331.5 Z" stroke-miterlimit="10"/></g><g transform="translate(-150,-190) scale(1,1)"><path fill="none" stroke="#000000" d="M 160 368 L 249.57080078125 368" stroke-miterlimit="10"/></g><g transform="translate(-150,-190) scale(1,1)"><path fill="none" stroke="#000000" d="M 160 391 L 249.57080078125 391" stroke-miterlimit="10"/></g><g transform="translate(-150,-190) scale(1,1)"><g><path fill="none" stroke="none"/><text fill="#000000" stroke="none" font-family="Arial" font-size="13px" font-style="normal" font-weight="bold" text-decoration="none" x="175.878173828125" y="362.5">Interface1</text></g></g><g transform="translate(-150,-190) scale(1,1)"><g><path fill="none" stroke="none"/><text fill="#000000" stroke="none" font-family="Arial" font-size="13px" font-style="normal" font-weight="normal" text-decoration="none" x="165" y="385.5">+Attribute1</text></g></g><g transform="translate(-150,-190) scale(1,1)"><g><path fill="none" stroke="none"/><text fill="#000000" stroke="none" font-family="Arial" font-size="13px" font-style="normal" font-weight="normal" text-decoration="none" x="165" y="408.5">+Operation1()</text></g></g><g transform="translate(-150,-190) scale(1,1)"><rect fill="#C0C0C0" stroke="none" x="175" y="207" width="50.919921875" height="44" opacity="0.2"/></g><g transform="translate(-150,-190) scale(1,1)"><rect fill="#ffffff" stroke="none" x="168" y="200" width="50.919921875" height="44"/></g><g transform="translate(-150,-190) scale(1,1)"><path fill="none" stroke="#000000" d="M 168 200 L 218.919921875 200 L 218.919921875 244 L 168 244 L 168 200 Z Z" stroke-miterlimit="10"/></g><g transform="translate(-150,-190) scale(1,1)"><path fill="none" stroke="#000000" d="M 168 225 L 218.919921875 225" stroke-miterlimit="10"/></g><g transform="translate(-150,-190) scale(1,1)"><path fill="none" stroke="#000000" d="M 168 235 L 218.919921875 235" stroke-miterlimit="10"/></g><g transform="translate(-150,-190) scale(1,1)"><g><path fill="none" stroke="none"/><text fill="#000000" stroke="none" font-family="Arial" font-size="13px" font-style="normal" font-weight="bold" text-decoration="none" x="173.591796875" y="219.5">Class1</text></g></g></g></svg>